<?xml version="1.0" encoding="UTF-8" standalone="no"?>
<!DOCTYPE svg PUBLIC "-//W3C//DTD SVG 1.1//EN"
 "http://www.w3.org/Graphics/SVG/1.1/DTD/svg11.dtd">
<!-- Generated by graphviz version 2.40.1 (0)
 -->
<!-- Title: snakemake_dag Pages: 1 -->
<svg width="728pt" height="476pt"
 viewBox="0.00 0.00 727.50 476.00" xmlns="http://www.w3.org/2000/svg" xmlns:xlink="http://www.w3.org/1999/xlink">
<g id="graph0" class="graph" transform="scale(1 1) rotate(0) translate(4 472)">
<title>snakemake_dag</title>
<polygon fill="#ffffff" stroke="transparent" points="-4,4 -4,-472 723.5,-472 723.5,4 -4,4"/>
<!-- 0 -->
<g id="node1" class="node">
<title>0</title>
<path fill="none" stroke="#d89556" stroke-width="2" d="M356,-36C356,-36 326,-36 326,-36 320,-36 314,-30 314,-24 314,-24 314,-12 314,-12 314,-6 320,0 326,0 326,0 356,0 356,0 362,0 368,-6 368,-12 368,-12 368,-24 368,-24 368,-30 362,-36 356,-36"/>
<text text-anchor="middle" x="341" y="-15.5" font-family="sans" font-size="10.00" fill="#000000">all</text>
</g>
<!-- 1 -->
<g id="node2" class="node">
<title>1</title>
<path fill="none" stroke="#d85656" stroke-width="2" d="M56,-108C56,-108 12,-108 12,-108 6,-108 0,-102 0,-96 0,-96 0,-84 0,-84 0,-78 6,-72 12,-72 12,-72 56,-72 56,-72 62,-72 68,-78 68,-84 68,-84 68,-96 68,-96 68,-102 62,-108 56,-108"/>
<text text-anchor="middle" x="34" y="-87.5" font-family="sans" font-size="10.00" fill="#000000">BAM_stats</text>
</g>
<!-- 1&#45;&gt;0 -->
<g id="edge1" class="edge">
<title>1&#45;&gt;0</title>
<path fill="none" stroke="#c0c0c0" stroke-width="2" d="M68.0457,-75.0435C71.0474,-73.9399 74.0612,-72.9062 77,-72 156.2562,-47.5612 252.3504,-31.0735 303.9507,-23.2448"/>
<polygon fill="#c0c0c0" stroke="#c0c0c0" stroke-width="2" points="304.5883,-26.6885 313.9619,-21.7503 303.5547,-19.7652 304.5883,-26.6885"/>
</g>
<!-- 2 -->
<g id="node3" class="node">
<title>2</title>
<path fill="none" stroke="#97d856" stroke-width="2" d="M157.5,-180C157.5,-180 74.5,-180 74.5,-180 68.5,-180 62.5,-174 62.5,-168 62.5,-168 62.5,-156 62.5,-156 62.5,-150 68.5,-144 74.5,-144 74.5,-144 157.5,-144 157.5,-144 163.5,-144 169.5,-150 169.5,-156 169.5,-156 169.5,-168 169.5,-168 169.5,-174 163.5,-180 157.5,-180"/>
<text text-anchor="middle" x="116" y="-159.5" font-family="sans" font-size="10.00" fill="#000000">remove_PCR_dups</text>
</g>
<!-- 2&#45;&gt;1 -->
<g id="edge7" class="edge">
<title>2&#45;&gt;1</title>
<path fill="none" stroke="#c0c0c0" stroke-width="2" d="M95.3079,-143.8314C85.3052,-135.0485 73.145,-124.3712 62.3001,-114.8489"/>
<polygon fill="#c0c0c0" stroke="#c0c0c0" stroke-width="2" points="64.5092,-112.1308 54.6854,-108.1628 59.8906,-117.3909 64.5092,-112.1308"/>
</g>
<!-- 19 -->
<g id="node20" class="node">
<title>19</title>
<path fill="none" stroke="#56d89a" stroke-width="2" d="M215.5,-108C215.5,-108 98.5,-108 98.5,-108 92.5,-108 86.5,-102 86.5,-96 86.5,-96 86.5,-84 86.5,-84 86.5,-78 92.5,-72 98.5,-72 98.5,-72 215.5,-72 215.5,-72 221.5,-72 227.5,-78 227.5,-84 227.5,-84 227.5,-96 227.5,-96 227.5,-102 221.5,-108 215.5,-108"/>
<text text-anchor="middle" x="157" y="-87.5" font-family="sans" font-size="10.00" fill="#000000">samtools_index_deduped</text>
</g>
<!-- 2&#45;&gt;19 -->
<g id="edge25" class="edge">
<title>2&#45;&gt;19</title>
<path fill="none" stroke="#c0c0c0" stroke-width="2" d="M126.346,-143.8314C130.9237,-135.7925 136.4052,-126.1666 141.4588,-117.2918"/>
<polygon fill="#c0c0c0" stroke="#c0c0c0" stroke-width="2" points="144.6077,-118.8351 146.5147,-108.4133 138.5248,-115.3712 144.6077,-118.8351"/>
</g>
<!-- 3 -->
<g id="node4" class="node">
<title>3</title>
<path fill="none" stroke="#56d8d8" stroke-width="2" d="M195,-324C195,-324 133,-324 133,-324 127,-324 121,-318 121,-312 121,-312 121,-300 121,-300 121,-294 127,-288 133,-288 133,-288 195,-288 195,-288 201,-288 207,-294 207,-300 207,-300 207,-312 207,-312 207,-318 201,-324 195,-324"/>
<text text-anchor="middle" x="164" y="-303.5" font-family="sans" font-size="10.00" fill="#000000">samtools_sort</text>
</g>
<!-- 3&#45;&gt;2 -->
<g id="edge8" class="edge">
<title>3&#45;&gt;2</title>
<path fill="none" stroke="#c0c0c0" stroke-width="2" d="M145.8329,-287.6501C137.345,-277.8926 128.0223,-265.2022 123,-252 115.5354,-232.3779 113.9661,-208.6481 114.1664,-190.4822"/>
<polygon fill="#c0c0c0" stroke="#c0c0c0" stroke-width="2" points="117.672,-190.3395 114.4701,-180.2402 110.6751,-190.132 117.672,-190.3395"/>
</g>
<!-- 6 -->
<g id="node7" class="node">
<title>6</title>
<path fill="none" stroke="#59d856" stroke-width="2" d="M214,-252C214,-252 144,-252 144,-252 138,-252 132,-246 132,-240 132,-240 132,-228 132,-228 132,-222 138,-216 144,-216 144,-216 214,-216 214,-216 220,-216 226,-222 226,-228 226,-228 226,-240 226,-240 226,-246 220,-252 214,-252"/>
<text text-anchor="middle" x="179" y="-231.5" font-family="sans" font-size="10.00" fill="#000000">samtools_index</text>
</g>
<!-- 3&#45;&gt;6 -->
<g id="edge12" class="edge">
<title>3&#45;&gt;6</title>
<path fill="none" stroke="#c0c0c0" stroke-width="2" d="M167.7851,-287.8314C169.3894,-280.131 171.297,-270.9743 173.0799,-262.4166"/>
<polygon fill="#c0c0c0" stroke="#c0c0c0" stroke-width="2" points="176.5507,-262.9169 175.1639,-252.4133 169.6979,-261.4892 176.5507,-262.9169"/>
</g>
<!-- 4 -->
<g id="node5" class="node">
<title>4</title>
<path fill="none" stroke="#d6d856" stroke-width="2" d="M184,-396C184,-396 144,-396 144,-396 138,-396 132,-390 132,-384 132,-384 132,-372 132,-372 132,-366 138,-360 144,-360 144,-360 184,-360 184,-360 190,-360 196,-366 196,-372 196,-372 196,-384 196,-384 196,-390 190,-396 184,-396"/>
<text text-anchor="middle" x="164" y="-375.5" font-family="sans" font-size="10.00" fill="#000000">bwa_map</text>
</g>
<!-- 4&#45;&gt;3 -->
<g id="edge10" class="edge">
<title>4&#45;&gt;3</title>
<path fill="none" stroke="#c0c0c0" stroke-width="2" d="M164,-359.8314C164,-352.131 164,-342.9743 164,-334.4166"/>
<polygon fill="#c0c0c0" stroke="#c0c0c0" stroke-width="2" points="167.5001,-334.4132 164,-324.4133 160.5001,-334.4133 167.5001,-334.4132"/>
</g>
<!-- 5 -->
<g id="node6" class="node">
<title>5</title>
<path fill="none" stroke="#569ad8" stroke-width="2" d="M202,-468C202,-468 126,-468 126,-468 120,-468 114,-462 114,-456 114,-456 114,-444 114,-444 114,-438 120,-432 126,-432 126,-432 202,-432 202,-432 208,-432 214,-438 214,-444 214,-444 214,-456 214,-456 214,-462 208,-468 202,-468"/>
<text text-anchor="middle" x="164" y="-453" font-family="sans" font-size="10.00" fill="#000000">trim_filter_fastqs</text>
<text text-anchor="middle" x="164" y="-442" font-family="sans" font-size="10.00" fill="#000000">sample: YN43</text>
</g>
<!-- 5&#45;&gt;4 -->
<g id="edge11" class="edge">
<title>5&#45;&gt;4</title>
<path fill="none" stroke="#c0c0c0" stroke-width="2" d="M164,-431.8314C164,-424.131 164,-414.9743 164,-406.4166"/>
<polygon fill="#c0c0c0" stroke="#c0c0c0" stroke-width="2" points="167.5001,-406.4132 164,-396.4133 160.5001,-406.4133 167.5001,-406.4132"/>
</g>
<!-- 6&#45;&gt;2 -->
<g id="edge9" class="edge">
<title>6&#45;&gt;2</title>
<path fill="none" stroke="#c0c0c0" stroke-width="2" d="M163.1024,-215.8314C155.7722,-207.454 146.934,-197.3531 138.9031,-188.1749"/>
<polygon fill="#c0c0c0" stroke="#c0c0c0" stroke-width="2" points="141.3307,-185.6343 132.1116,-180.4133 136.0627,-190.2438 141.3307,-185.6343"/>
</g>
<!-- 7 -->
<g id="node8" class="node">
<title>7</title>
<path fill="none" stroke="#d85656" stroke-width="2" d="M302,-108C302,-108 258,-108 258,-108 252,-108 246,-102 246,-96 246,-96 246,-84 246,-84 246,-78 252,-72 258,-72 258,-72 302,-72 302,-72 308,-72 314,-78 314,-84 314,-84 314,-96 314,-96 314,-102 308,-108 302,-108"/>
<text text-anchor="middle" x="280" y="-87.5" font-family="sans" font-size="10.00" fill="#000000">BAM_stats</text>
</g>
<!-- 7&#45;&gt;0 -->
<g id="edge2" class="edge">
<title>7&#45;&gt;0</title>
<path fill="none" stroke="#c0c0c0" stroke-width="2" d="M295.3929,-71.8314C302.4904,-63.454 311.048,-53.3531 318.824,-44.1749"/>
<polygon fill="#c0c0c0" stroke="#c0c0c0" stroke-width="2" points="321.6061,-46.3056 325.3999,-36.4133 316.2652,-41.7807 321.6061,-46.3056"/>
</g>
<!-- 8 -->
<g id="node9" class="node">
<title>8</title>
<path fill="none" stroke="#97d856" stroke-width="2" d="M361.5,-180C361.5,-180 278.5,-180 278.5,-180 272.5,-180 266.5,-174 266.5,-168 266.5,-168 266.5,-156 266.5,-156 266.5,-150 272.5,-144 278.5,-144 278.5,-144 361.5,-144 361.5,-144 367.5,-144 373.5,-150 373.5,-156 373.5,-156 373.5,-168 373.5,-168 373.5,-174 367.5,-180 361.5,-180"/>
<text text-anchor="middle" x="320" y="-159.5" font-family="sans" font-size="10.00" fill="#000000">remove_PCR_dups</text>
</g>
<!-- 8&#45;&gt;7 -->
<g id="edge13" class="edge">
<title>8&#45;&gt;7</title>
<path fill="none" stroke="#c0c0c0" stroke-width="2" d="M309.9063,-143.8314C305.4403,-135.7925 300.0925,-126.1666 295.1621,-117.2918"/>
<polygon fill="#c0c0c0" stroke="#c0c0c0" stroke-width="2" points="298.1456,-115.4551 290.2296,-108.4133 292.0265,-118.8546 298.1456,-115.4551"/>
</g>
<!-- 20 -->
<g id="node21" class="node">
<title>20</title>
<path fill="none" stroke="#56d89a" stroke-width="2" d="M461.5,-108C461.5,-108 344.5,-108 344.5,-108 338.5,-108 332.5,-102 332.5,-96 332.5,-96 332.5,-84 332.5,-84 332.5,-78 338.5,-72 344.5,-72 344.5,-72 461.5,-72 461.5,-72 467.5,-72 473.5,-78 473.5,-84 473.5,-84 473.5,-96 473.5,-96 473.5,-102 467.5,-108 461.5,-108"/>
<text text-anchor="middle" x="403" y="-87.5" font-family="sans" font-size="10.00" fill="#000000">samtools_index_deduped</text>
</g>
<!-- 8&#45;&gt;20 -->
<g id="edge26" class="edge">
<title>8&#45;&gt;20</title>
<path fill="none" stroke="#c0c0c0" stroke-width="2" d="M340.9444,-143.8314C351.0691,-135.0485 363.3777,-124.3712 374.3548,-114.8489"/>
<polygon fill="#c0c0c0" stroke="#c0c0c0" stroke-width="2" points="376.8019,-117.3595 382.0623,-108.1628 372.2149,-112.0718 376.8019,-117.3595"/>
</g>
<!-- 9 -->
<g id="node10" class="node">
<title>9</title>
<path fill="none" stroke="#56d8d8" stroke-width="2" d="M329,-324C329,-324 267,-324 267,-324 261,-324 255,-318 255,-312 255,-312 255,-300 255,-300 255,-294 261,-288 267,-288 267,-288 329,-288 329,-288 335,-288 341,-294 341,-300 341,-300 341,-312 341,-312 341,-318 335,-324 329,-324"/>
<text text-anchor="middle" x="298" y="-303.5" font-family="sans" font-size="10.00" fill="#000000">samtools_sort</text>
</g>
<!-- 9&#45;&gt;8 -->
<g id="edge14" class="edge">
<title>9&#45;&gt;8</title>
<path fill="none" stroke="#c0c0c0" stroke-width="2" d="M297.3435,-287.9043C297.0205,-269.6111 297.444,-240.6064 302,-216 303.6117,-207.2957 306.2993,-198.0712 309.1127,-189.7562"/>
<polygon fill="#c0c0c0" stroke="#c0c0c0" stroke-width="2" points="312.4723,-190.7556 312.5428,-180.161 305.8808,-188.3993 312.4723,-190.7556"/>
</g>
<!-- 12 -->
<g id="node13" class="node">
<title>12</title>
<path fill="none" stroke="#59d856" stroke-width="2" d="M393,-252C393,-252 323,-252 323,-252 317,-252 311,-246 311,-240 311,-240 311,-228 311,-228 311,-222 317,-216 323,-216 323,-216 393,-216 393,-216 399,-216 405,-222 405,-228 405,-228 405,-240 405,-240 405,-246 399,-252 393,-252"/>
<text text-anchor="middle" x="358" y="-231.5" font-family="sans" font-size="10.00" fill="#000000">samtools_index</text>
</g>
<!-- 9&#45;&gt;12 -->
<g id="edge18" class="edge">
<title>9&#45;&gt;12</title>
<path fill="none" stroke="#c0c0c0" stroke-width="2" d="M313.1405,-287.8314C320.1217,-279.454 328.5391,-269.3531 336.1876,-260.1749"/>
<polygon fill="#c0c0c0" stroke="#c0c0c0" stroke-width="2" points="338.9425,-262.3362 342.6556,-252.4133 333.5649,-257.8548 338.9425,-262.3362"/>
</g>
<!-- 10 -->
<g id="node11" class="node">
<title>10</title>
<path fill="none" stroke="#d6d856" stroke-width="2" d="M318,-396C318,-396 278,-396 278,-396 272,-396 266,-390 266,-384 266,-384 266,-372 266,-372 266,-366 272,-360 278,-360 278,-360 318,-360 318,-360 324,-360 330,-366 330,-372 330,-372 330,-384 330,-384 330,-390 324,-396 318,-396"/>
<text text-anchor="middle" x="298" y="-375.5" font-family="sans" font-size="10.00" fill="#000000">bwa_map</text>
</g>
<!-- 10&#45;&gt;9 -->
<g id="edge16" class="edge">
<title>10&#45;&gt;9</title>
<path fill="none" stroke="#c0c0c0" stroke-width="2" d="M298,-359.8314C298,-352.131 298,-342.9743 298,-334.4166"/>
<polygon fill="#c0c0c0" stroke="#c0c0c0" stroke-width="2" points="301.5001,-334.4132 298,-324.4133 294.5001,-334.4133 301.5001,-334.4132"/>
</g>
<!-- 11 -->
<g id="node12" class="node">
<title>11</title>
<path fill="none" stroke="#569ad8" stroke-width="2" d="M336,-468C336,-468 260,-468 260,-468 254,-468 248,-462 248,-456 248,-456 248,-444 248,-444 248,-438 254,-432 260,-432 260,-432 336,-432 336,-432 342,-432 348,-438 348,-444 348,-444 348,-456 348,-456 348,-462 342,-468 336,-468"/>
<text text-anchor="middle" x="298" y="-453" font-family="sans" font-size="10.00" fill="#000000">trim_filter_fastqs</text>
<text text-anchor="middle" x="298" y="-442" font-family="sans" font-size="10.00" fill="#000000">sample: YN42</text>
</g>
<!-- 11&#45;&gt;10 -->
<g id="edge17" class="edge">
<title>11&#45;&gt;10</title>
<path fill="none" stroke="#c0c0c0" stroke-width="2" d="M298,-431.8314C298,-424.131 298,-414.9743 298,-406.4166"/>
<polygon fill="#c0c0c0" stroke="#c0c0c0" stroke-width="2" points="301.5001,-406.4132 298,-396.4133 294.5001,-406.4133 301.5001,-406.4132"/>
</g>
<!-- 12&#45;&gt;8 -->
<g id="edge15" class="edge">
<title>12&#45;&gt;8</title>
<path fill="none" stroke="#c0c0c0" stroke-width="2" d="M348.411,-215.8314C344.1683,-207.7925 339.0879,-198.1666 334.404,-189.2918"/>
<polygon fill="#c0c0c0" stroke="#c0c0c0" stroke-width="2" points="337.4811,-187.6235 329.7181,-180.4133 331.2904,-190.8908 337.4811,-187.6235"/>
</g>
<!-- 13 -->
<g id="node14" class="node">
<title>13</title>
<path fill="none" stroke="#d85656" stroke-width="2" d="M548,-108C548,-108 504,-108 504,-108 498,-108 492,-102 492,-96 492,-96 492,-84 492,-84 492,-78 498,-72 504,-72 504,-72 548,-72 548,-72 554,-72 560,-78 560,-84 560,-84 560,-96 560,-96 560,-102 554,-108 548,-108"/>
<text text-anchor="middle" x="526" y="-87.5" font-family="sans" font-size="10.00" fill="#000000">BAM_stats</text>
</g>
<!-- 13&#45;&gt;0 -->
<g id="edge3" class="edge">
<title>13&#45;&gt;0</title>
<path fill="none" stroke="#c0c0c0" stroke-width="2" d="M491.9209,-75.9699C488.5727,-74.6182 485.2229,-73.2762 482,-72 446.6818,-58.0148 406.1673,-42.5593 377.6567,-31.7794"/>
<polygon fill="#c0c0c0" stroke="#c0c0c0" stroke-width="2" points="378.6927,-28.4295 368.101,-28.1715 376.2201,-34.9782 378.6927,-28.4295"/>
</g>
<!-- 14 -->
<g id="node15" class="node">
<title>14</title>
<path fill="none" stroke="#97d856" stroke-width="2" d="M628.5,-180C628.5,-180 545.5,-180 545.5,-180 539.5,-180 533.5,-174 533.5,-168 533.5,-168 533.5,-156 533.5,-156 533.5,-150 539.5,-144 545.5,-144 545.5,-144 628.5,-144 628.5,-144 634.5,-144 640.5,-150 640.5,-156 640.5,-156 640.5,-168 640.5,-168 640.5,-174 634.5,-180 628.5,-180"/>
<text text-anchor="middle" x="587" y="-159.5" font-family="sans" font-size="10.00" fill="#000000">remove_PCR_dups</text>
</g>
<!-- 14&#45;&gt;13 -->
<g id="edge19" class="edge">
<title>14&#45;&gt;13</title>
<path fill="none" stroke="#c0c0c0" stroke-width="2" d="M571.6071,-143.8314C564.5096,-135.454 555.952,-125.3531 548.176,-116.1749"/>
<polygon fill="#c0c0c0" stroke="#c0c0c0" stroke-width="2" points="550.7348,-113.7807 541.6001,-108.4133 545.3939,-118.3056 550.7348,-113.7807"/>
</g>
<!-- 21 -->
<g id="node22" class="node">
<title>21</title>
<path fill="none" stroke="#56d89a" stroke-width="2" d="M707.5,-108C707.5,-108 590.5,-108 590.5,-108 584.5,-108 578.5,-102 578.5,-96 578.5,-96 578.5,-84 578.5,-84 578.5,-78 584.5,-72 590.5,-72 590.5,-72 707.5,-72 707.5,-72 713.5,-72 719.5,-78 719.5,-84 719.5,-84 719.5,-96 719.5,-96 719.5,-102 713.5,-108 707.5,-108"/>
<text text-anchor="middle" x="649" y="-87.5" font-family="sans" font-size="10.00" fill="#000000">samtools_index_deduped</text>
</g>
<!-- 14&#45;&gt;21 -->
<g id="edge27" class="edge">
<title>14&#45;&gt;21</title>
<path fill="none" stroke="#c0c0c0" stroke-width="2" d="M602.6452,-143.8314C609.8591,-135.454 618.557,-125.3531 626.4605,-116.1749"/>
<polygon fill="#c0c0c0" stroke="#c0c0c0" stroke-width="2" points="629.2711,-118.2748 633.1441,-108.4133 623.9667,-113.7071 629.2711,-118.2748"/>
</g>
<!-- 15 -->
<g id="node16" class="node">
<title>15</title>
<path fill="none" stroke="#56d8d8" stroke-width="2" d="M618,-324C618,-324 556,-324 556,-324 550,-324 544,-318 544,-312 544,-312 544,-300 544,-300 544,-294 550,-288 556,-288 556,-288 618,-288 618,-288 624,-288 630,-294 630,-300 630,-300 630,-312 630,-312 630,-318 624,-324 618,-324"/>
<text text-anchor="middle" x="587" y="-303.5" font-family="sans" font-size="10.00" fill="#000000">samtools_sort</text>
</g>
<!-- 15&#45;&gt;14 -->
<g id="edge20" class="edge">
<title>15&#45;&gt;14</title>
<path fill="none" stroke="#c0c0c0" stroke-width="2" d="M579.3321,-287.8756C575.3861,-277.5642 570.9945,-264.2907 569,-252 566.4371,-236.2066 566.4371,-231.7934 569,-216 570.418,-207.2621 573.0475,-198.0275 575.8671,-189.7136"/>
<polygon fill="#c0c0c0" stroke="#c0c0c0" stroke-width="2" points="579.2254,-190.7187 579.3321,-180.1244 572.642,-188.3399 579.2254,-190.7187"/>
</g>
<!-- 18 -->
<g id="node19" class="node">
<title>18</title>
<path fill="none" stroke="#59d856" stroke-width="2" d="M660,-252C660,-252 590,-252 590,-252 584,-252 578,-246 578,-240 578,-240 578,-228 578,-228 578,-222 584,-216 590,-216 590,-216 660,-216 660,-216 666,-216 672,-222 672,-228 672,-228 672,-240 672,-240 672,-246 666,-252 660,-252"/>
<text text-anchor="middle" x="625" y="-231.5" font-family="sans" font-size="10.00" fill="#000000">samtools_index</text>
</g>
<!-- 15&#45;&gt;18 -->
<g id="edge24" class="edge">
<title>15&#45;&gt;18</title>
<path fill="none" stroke="#c0c0c0" stroke-width="2" d="M596.589,-287.8314C600.8317,-279.7925 605.9121,-270.1666 610.596,-261.2918"/>
<polygon fill="#c0c0c0" stroke="#c0c0c0" stroke-width="2" points="613.7096,-262.8908 615.2819,-252.4133 607.5189,-259.6235 613.7096,-262.8908"/>
</g>
<!-- 16 -->
<g id="node17" class="node">
<title>16</title>
<path fill="none" stroke="#d6d856" stroke-width="2" d="M607,-396C607,-396 567,-396 567,-396 561,-396 555,-390 555,-384 555,-384 555,-372 555,-372 555,-366 561,-360 567,-360 567,-360 607,-360 607,-360 613,-360 619,-366 619,-372 619,-372 619,-384 619,-384 619,-390 613,-396 607,-396"/>
<text text-anchor="middle" x="587" y="-375.5" font-family="sans" font-size="10.00" fill="#000000">bwa_map</text>
</g>
<!-- 16&#45;&gt;15 -->
<g id="edge22" class="edge">
<title>16&#45;&gt;15</title>
<path fill="none" stroke="#c0c0c0" stroke-width="2" d="M587,-359.8314C587,-352.131 587,-342.9743 587,-334.4166"/>
<polygon fill="#c0c0c0" stroke="#c0c0c0" stroke-width="2" points="590.5001,-334.4132 587,-324.4133 583.5001,-334.4133 590.5001,-334.4132"/>
</g>
<!-- 17 -->
<g id="node18" class="node">
<title>17</title>
<path fill="none" stroke="#569ad8" stroke-width="2" d="M625,-468C625,-468 549,-468 549,-468 543,-468 537,-462 537,-456 537,-456 537,-444 537,-444 537,-438 543,-432 549,-432 549,-432 625,-432 625,-432 631,-432 637,-438 637,-444 637,-444 637,-456 637,-456 637,-462 631,-468 625,-468"/>
<text text-anchor="middle" x="587" y="-453" font-family="sans" font-size="10.00" fill="#000000">trim_filter_fastqs</text>
<text text-anchor="middle" x="587" y="-442" font-family="sans" font-size="10.00" fill="#000000">sample: YN40</text>
</g>
<!-- 17&#45;&gt;16 -->
<g id="edge23" class="edge">
<title>17&#45;&gt;16</title>
<path fill="none" stroke="#c0c0c0" stroke-width="2" d="M587,-431.8314C587,-424.131 587,-414.9743 587,-406.4166"/>
<polygon fill="#c0c0c0" stroke="#c0c0c0" stroke-width="2" points="590.5001,-406.4132 587,-396.4133 583.5001,-406.4133 590.5001,-406.4132"/>
</g>
<!-- 18&#45;&gt;14 -->
<g id="edge21" class="edge">
<title>18&#45;&gt;14</title>
<path fill="none" stroke="#c0c0c0" stroke-width="2" d="M615.411,-215.8314C611.1683,-207.7925 606.0879,-198.1666 601.404,-189.2918"/>
<polygon fill="#c0c0c0" stroke="#c0c0c0" stroke-width="2" points="604.4811,-187.6235 596.7181,-180.4133 598.2904,-190.8908 604.4811,-187.6235"/>
</g>
<!-- 19&#45;&gt;0 -->
<g id="edge4" class="edge">
<title>19&#45;&gt;0</title>
<path fill="none" stroke="#c0c0c0" stroke-width="2" d="M203.431,-71.8314C234.804,-59.555 275.6354,-43.5774 304.6445,-32.2261"/>
<polygon fill="#c0c0c0" stroke="#c0c0c0" stroke-width="2" points="305.9614,-35.4692 313.9984,-28.5658 303.4106,-28.9505 305.9614,-35.4692"/>
</g>
<!-- 20&#45;&gt;0 -->
<g id="edge5" class="edge">
<title>20&#45;&gt;0</title>
<path fill="none" stroke="#c0c0c0" stroke-width="2" d="M387.3548,-71.8314C380.1409,-63.454 371.443,-53.3531 363.5395,-44.1749"/>
<polygon fill="#c0c0c0" stroke="#c0c0c0" stroke-width="2" points="366.0333,-41.7071 356.8559,-36.4133 360.7289,-46.2748 366.0333,-41.7071"/>
</g>
<!-- 21&#45;&gt;0 -->
<g id="edge6" class="edge">
<title>21&#45;&gt;0</title>
<path fill="none" stroke="#c0c0c0" stroke-width="2" d="M578.3386,-73.4817C515.9948,-58.9079 427.5748,-38.2383 378.14,-26.6821"/>
<polygon fill="#c0c0c0" stroke="#c0c0c0" stroke-width="2" points="378.7405,-23.2282 368.2063,-24.3599 377.147,-30.0444 378.7405,-23.2282"/>
</g>
</g>
</svg>
